HIERARCHY
ROOT Root
{
  OFFSET 0.0 0.0 0.0
  CHANNELS 6 Xposition Yposition Zposition Zrotation Yrotation Xrotation
  JOINT Hips
  {
    OFFSET 0.0 100.0 0.0
    CHANNELS 6 Xposition Yposition Zposition Zrotation Yrotation Xrotation
    JOINT Spine1
    {
      OFFSET -0.013727 5.003763 -0.053727
      CHANNELS 3 Zrotation Yrotation Xrotation
      JOINT Spine2
      {
        OFFSET -0.0 7.125301 -0.029825
        CHANNELS 3 Zrotation Yrotation Xrotation
        JOINT Chest
        {
          OFFSET -1e-06 7.550063 -0.815971
          CHANNELS 3 Zrotation Yrotation Xrotation
          JOINT Neck1
          {
            OFFSET -0.181677 26.311295 -0.553348
            CHANNELS 3 Zrotation Yrotation Xrotation
            JOINT Neck2
            {
              OFFSET -3e-06 7.709397 2.302585
              CHANNELS 3 Zrotation Yrotation Xrotation
              JOINT Head
              {
                OFFSET -5e-06 6.128916 1.953709
                CHANNELS 3 Zrotation Yrotation Xrotation
                JOINT HeadEnd
                {
                  OFFSET 0.003598 16.065403 -1.835379
                  CHANNELS 3 Zrotation Yrotation Xrotation
                }
                JOINT Jaw
                {
                  OFFSET 0.002637 0.475592 3.094941
                  CHANNELS 3 Zrotation Yrotation Xrotation
                }
                JOINT LeftEye
                {
                  OFFSET 3.206381 5.380205 7.586883
                  CHANNELS 3 Zrotation Yrotation Xrotation
                }
                JOINT RightEye
                {
                  OFFSET -3.22244 5.361869 7.558234
                  CHANNELS 3 Zrotation Yrotation Xrotation
                }
              }
            }
          }
          JOINT LeftShoulder
          {
            OFFSET 1.621652 23.237164 5.113413
            CHANNELS 3 Zrotation Yrotation Xrotation
            JOINT LeftArm
            {
              OFFSET 14.919846 2e-06 -5.502326
              CHANNELS 3 Zrotation Yrotation Xrotation
              JOINT LeftForeArm
              {
                OFFSET 28.739307 0.0 -0.002588
                CHANNELS 3 Zrotation Yrotation Xrotation
                JOINT LeftHand
                {
                  OFFSET 27.093981 -1e-06 0.002609
                  CHANNELS 3 Zrotation Yrotation Xrotation
                  JOINT LeftHandThumb1
                  {
                    OFFSET 2.276482 -1.392045 3.191413
                    CHANNELS 3 Zrotation Yrotation Xrotation
                    JOINT LeftHandThumb2
                    {
                      OFFSET 4.012836 -1.828127 1.641654
                      CHANNELS 3 Zrotation Yrotation Xrotation
                      JOINT LeftHandThumb3
                      {
                        OFFSET 2.798515 0.0 -3e-06
                        CHANNELS 3 Zrotation Yrotation Xrotation
                        JOINT LeftHandThumbEnd
                        {
                          OFFSET 3.180793 -4e-06 4e-06
                          CHANNELS 3 Zrotation Yrotation Xrotation
                        }
                      }
                    }
                  }
                  JOINT LeftHandIndex1
                  {
                    OFFSET 3.247555 -0.531998 2.296169
                    CHANNELS 3 Zrotation Yrotation Xrotation
                    JOINT LeftHandIndex2
                    {
                      OFFSET 6.364578 0.01206 0.1786
                      CHANNELS 3 Zrotation Yrotation Xrotation
                      JOINT LeftHandIndex3
                      {
                        OFFSET 3.662364 0.0 0.0
                        CHANNELS 3 Zrotation Yrotation Xrotation
                        JOINT LeftHandIndex4
                        {
                          OFFSET 2.329242 4e-06 4e-06
                          CHANNELS 3 Zrotation Yrotation Xrotation
                          JOINT LeftHandIndexEnd
                          {
                            OFFSET 2.759615 -0.180537 -0.113024
                            CHANNELS 3 Zrotation Yrotation Xrotation
                          }
                        }
                      }
                    }
                  }
                  JOINT LeftHandMiddle1
                  {
                    OFFSET 3.163495 0.240981 1.000332
                    CHANNELS 3 Zrotation Yrotation Xrotation
                    JOINT LeftHandMiddle2
                    {
                      OFFSET 6.19078 -0.259278 -1.002548
                      CHANNELS 3 Zrotation Yrotation Xrotation
                      JOINT LeftHandMiddle3
                      {
                        OFFSET 4.35652 -4e-06 -1e-06
                        CHANNELS 3 Zrotation Yrotation Xrotation
                        JOINT LeftHandMiddle4
                        {
                          OFFSET 2.996877 -8e-06 0.0
                          CHANNELS 3 Zrotation Yrotation Xrotation
                          JOINT LeftHandMiddleEnd
                          {
                            OFFSET 2.304287 -0.294569 -0.031741
                            CHANNELS 3 Zrotation Yrotation Xrotation
                          }
                        }
                      }
                    }
                  }
                  JOINT LeftHandRing1
                  {
                    OFFSET 2.882643 -0.053652 -0.322543
                    CHANNELS 3 Zrotation Yrotation Xrotation
                    JOINT LeftHandRing2
                    {
                      OFFSET 5.854541 -0.486202 -1.373841
                      CHANNELS 3 Zrotation Yrotation Xrotation
                      JOINT LeftHandRing3
                      {
                        OFFSET 4.350578 0.0 3e-06
                        CHANNELS 3 Zrotation Yrotation Xrotation
                        JOINT LeftHandRing4
                        {
                          OFFSET 2.651321 7e-06 2e-06
                          CHANNELS 3 Zrotation Yrotation Xrotation
                          JOINT LeftHandRingEnd
                          {
                            OFFSET 1.936105 0.077687 -7.1e-05
                            CHANNELS 3 Zrotation Yrotation Xrotation
                          }
                        }
                      }
                    }
                  }
                  JOINT LeftHandPinky1
                  {
                    OFFSET 2.8655 -0.310005 -1.600378
                    CHANNELS 3 Zrotation Yrotation Xrotation
                    JOINT LeftHandPinky2
                    {
                      OFFSET 5.087849 -1.331141 -1.77123
                      CHANNELS 3 Zrotation Yrotation Xrotation
                      JOINT LeftHandPinky3
                      {
                        OFFSET 3.070974 4e-06 0.0
                        CHANNELS 3 Zrotation Yrotation Xrotation
                        JOINT LeftHandPinky4
                        {
                          OFFSET 1.549672 0.0 1e-06
                          CHANNELS 3 Zrotation Yrotation Xrotation
                          JOINT LeftHandPinkyEnd
                          {
                            OFFSET 1.944893 -0.157802 0.057219
                            CHANNELS 3 Zrotation Yrotation Xrotation
                          }
                        }
                      }
                    }
                  }
                }
              }
            }
          }
          JOINT RightShoulder
          {
            OFFSET -1.380118 23.180309 5.214158
            CHANNELS 3 Zrotation Yrotation Xrotation
            JOINT RightArm
            {
              OFFSET -15.037196 1.2e-05 -5.545604
              CHANNELS 3 Zrotation Yrotation Xrotation
              JOINT RightForeArm
              {
                OFFSET -28.736639 2e-06 -0.002597
                CHANNELS 3 Zrotation Yrotation Xrotation
                JOINT RightHand
                {
                  OFFSET -27.133619 -0.0 0.002613
                  CHANNELS 3 Zrotation Yrotation Xrotation
                  JOINT RightHandThumb1
                  {
                    OFFSET -2.274032 -1.383988 3.163127
                    CHANNELS 3 Zrotation Yrotation Xrotation
                    JOINT RightHandThumb2
                    {
                      OFFSET -4.011429 -1.827466 1.640914
                      CHANNELS 3 Zrotation Yrotation Xrotation
                      JOINT RightHandThumb3
                      {
                        OFFSET -2.794935 -4e-06 -3e-06
                        CHANNELS 3 Zrotation Yrotation Xrotation
                        JOINT RightHandThumbEnd
                        {
                          OFFSET -3.183852 4e-06 1e-06
                          CHANNELS 3 Zrotation Yrotation Xrotation
                        }
                      }
                    }
                  }
                  JOINT RightHandIndex1
                  {
                    OFFSET -3.253266 -0.520057 2.282866
                    CHANNELS 3 Zrotation Yrotation Xrotation
                    JOINT RightHandIndex2
                    {
                      OFFSET -6.341917 0.012471 0.178266
                      CHANNELS 3 Zrotation Yrotation Xrotation
                      JOINT RightHandIndex3
                      {
                        OFFSET -3.654871 -8e-06 -0.0
                        CHANNELS 3 Zrotation Yrotation Xrotation
                        JOINT RightHandIndex4
                        {
                          OFFSET -2.327586 0.0 1e-06
                          CHANNELS 3 Zrotation Yrotation Xrotation
                          JOINT RightHandIndexEnd
                          {
                            OFFSET -2.76179 -0.180656 -0.113078
                            CHANNELS 3 Zrotation Yrotation Xrotation
                          }
                        }
                      }
                    }
                  }
                  JOINT RightHandMiddle1
                  {
                    OFFSET -3.168106 0.246593 1.00103
                    CHANNELS 3 Zrotation Yrotation Xrotation
                    JOINT RightHandMiddle2
                    {
                      OFFSET -6.180828 -0.258836 -1.000895
                      CHANNELS 3 Zrotation Yrotation Xrotation
                      JOINT RightHandMiddle3
                      {
                        OFFSET -4.348901 0.0 -0.0
                        CHANNELS 3 Zrotation Yrotation Xrotation
                        JOINT RightHandMiddle4
                        {
                          OFFSET -3.00024 -4e-06 -2e-06
                          CHANNELS 3 Zrotation Yrotation Xrotation
                          JOINT RightHandMiddleEnd
                          {
                            OFFSET -2.30252 -0.29437 -0.031706
                            CHANNELS 3 Zrotation Yrotation Xrotation
                          }
                        }
                      }
                    }
                  }
                  JOINT RightHandRing1
                  {
                    OFFSET -2.88569 -0.067952 -0.308858
                    CHANNELS 3 Zrotation Yrotation Xrotation
                    JOINT RightHandRing2
                    {
                      OFFSET -5.854198 -0.48613 -1.373731
                      CHANNELS 3 Zrotation Yrotation Xrotation
                      JOINT RightHandRing3
                      {
                        OFFSET -4.33881 -4e-06 -0.0
                        CHANNELS 3 Zrotation Yrotation Xrotation
                        JOINT RightHandRing4
                        {
                          OFFSET -2.654903 -4e-06 4e-06
                          CHANNELS 3 Zrotation Yrotation Xrotation
                          JOINT RightHandRingEnd
                          {
                            OFFSET -1.933568 0.077527 -5.2e-05
                            CHANNELS 3 Zrotation Yrotation Xrotation
                          }
                        }
                      }
                    }
                  }
                  JOINT RightHandPinky1
                  {
                    OFFSET -2.866425 -0.342796 -1.584145
                    CHANNELS 3 Zrotation Yrotation Xrotation
                    JOINT RightHandPinky2
                    {
                      OFFSET -5.091371 -1.332055 -1.772385
                      CHANNELS 3 Zrotation Yrotation Xrotation
                      JOINT RightHandPinky3
                      {
                        OFFSET -3.062664 -4e-06 1e-06
                        CHANNELS 3 Zrotation Yrotation Xrotation
                        JOINT RightHandPinky4
                        {
                          OFFSET -1.546529 4e-06 -2e-06
                          CHANNELS 3 Zrotation Yrotation Xrotation
                          JOINT RightHandPinkyEnd
                          {
                            OFFSET -1.945119 -0.157718 0.057211
                            CHANNELS 3 Zrotation Yrotation Xrotation
                          }
                        }
                      }
                    }
                  }
                }
              }
            }
          }
        }
      }
    }
    JOINT LeftLeg
    {
      OFFSET 10.043214 -8.434526 2.595655
      CHANNELS 3 Zrotation Yrotation Xrotation
      JOINT LeftShin
      {
        OFFSET -1e-06 -43.221752 -0.802913
        CHANNELS 3 Zrotation Yrotation Xrotation
        JOINT LeftFoot
        {
          OFFSET 1e-06 -42.155094 -3.481523
          CHANNELS 3 Zrotation Yrotation Xrotation
          JOINT LeftToeBase
          {
            OFFSET 0.0 -5.059472 13.231529
            CHANNELS 3 Zrotation Yrotation Xrotation
            JOINT LeftToeEnd
            {
              OFFSET -0.009607 -1.647619 6.513017
              CHANNELS 3 Zrotation Yrotation Xrotation
            }
          }
        }
      }
    }
    JOINT RightLeg
    {
      OFFSET -10.047278 -8.29526 2.620317
      CHANNELS 3 Zrotation Yrotation Xrotation
      JOINT RightShin
      {
        OFFSET 1e-06 -43.362206 -0.805556
        CHANNELS 3 Zrotation Yrotation Xrotation
        JOINT RightFoot
        {
          OFFSET 2e-06 -42.117393 -3.478398
          CHANNELS 3 Zrotation Yrotation Xrotation
          JOINT RightToeBase
          {
            OFFSET -0.0 -5.079609 13.284196
            CHANNELS 3 Zrotation Yrotation Xrotation
            JOINT RightToeEnd
            {
              OFFSET 0.009532 -1.634378 6.460591
              CHANNELS 3 Zrotation Yrotation Xrotation
            }
          }
        }
      }
    }
  }
}
MOTION
Frames: 4
Frame Time: 0.03333333333333333
0.0 0.0 0.0 0.0 -0.0 0.0 -0.355061 38.476227 4.906167 -3.469973 -1.081519 2.507926 -3.331778 -3.400981 20.182615 -1.121839 -1.270903 5.308496 1.076198 -5.857549 19.018255 -9.348318 6.803573 -3.520309 2.223941 8.978263 -3.3166 -1.460652 11.220974 -8.96193 7.7e-05 -2.2e-05 8e-06 -0.015279 0.019185 0.004046 0.716554 -3.632216 -10.411716 -0.758711 3.677453 -10.420895 1.585273 -14.329583 3.629009 -12.757947 -55.331951 -17.875654 -15.246811 -83.774612 16.342564 7.440194 3.315278 46.120899 -5.882107 9.861292 0.70259 -10.936878 -0.360579 7.156212 1e-06 8.774826 -2e-06 -16.954994 17.342274 6.25308 -1.844033 2.498506 -2.50728 -10.163606 4.678945 4.621111 -20.976038 -8e-06 5e-06 -21.226299 2.451694 -3.593997 2e-06 -6e-06 -0.0 -1.362682 2.2408 -0.746324 -21.334929 0.584905 3.008328 -13.821223 -5e-06 4e-06 -23.887184 -0.249082 -0.83948 -60.633919 2.49939 -0.128137 -0.294025 1.679689 0.833256 -14.218219 0.093211 1.300582 -34.212074 -0.287571 0.967178 -20.03323 0.964535 1.212849 0.0 -0.0 0.0 -3.440391 0.78823 0.501656 -15.928198 -3.167316 2.99971 -6.33883 -3e-06 1e-06 -18.123459 3.648182 -4.905671 -6e-06 0.0 -2e-06 -3.515987 27.616276 2.528743 74.649086 34.866596 -11.098529 -176.30249 67.202522 -176.783035 -25.044159 22.206051 -32.658226 2.243542 -5.255038 -3.180159 14.282894 -0.826593 6.952503 -3e-06 -12.690607 1e-06 16.381083 -17.292864 2.250172 1.665667 -1.955922 -2.878299 4.7278 -4.170588 4.993925 11.020529 2e-06 -2e-06 12.109053 -3.735718 -2.866783 1e-06 2e-06 -1e-06 1.291986 -1.928551 -1.49809 14.800132 0.567469 3.865608 14.242577 -1.341737 -6.66066 19.631973 0.143929 -0.648244 50.337608 -0.89895 -5.826219 0.353029 -1.511151 -0.03194 20.222797 3.684309 2.31663 18.787281 5e-06 -2e-06 10.751631 -0.479868 1.397906 -1e-06 1e-06 1e-06 3.273808 0.305948 -0.580111 21.48682 11.830376 2.266134 8.16293 2e-06 -2e-06 18.399088 -3.798985 -4.940577 3e-06 1e-06 -2e-06 6.397994 22.295002 -117.579399 0.123817 -0.184686 126.725655 -6.342896 -0.3514 -10.746355 1.453531 -2.16333 1.810405 -0.0 -1e-06 2e-06 -49.734844 -45.053406 -60.882263 1.368216 0.849934 126.760841 14.584061 48.255249 -24.597126 -1.452648 0.214611 2.567471 0.0 0.0 -1e-06 
0.0 0.0 0.0 0.0 -0.0 0.0 -0.342446 38.475563 4.941905 -3.469093 -1.126949 2.48457 -3.31771 -3.394217 20.150867 -1.119646 -1.278841 5.319666 1.145142 -5.873847 19.038424 -9.393524 6.853343 -3.44243 2.25529 8.932435 -3.321171 -1.554123 11.158558 -8.984411 7.7e-05 -2.3e-05 7e-06 -0.014263 0.019034 0.008829 0.716064 -3.635668 -10.417426 -0.756311 3.680331 -10.426707 1.554778 -14.344185 3.710654 -12.833033 -55.343288 -17.833319 -14.888346 -83.71048 16.001656 7.56286 3.302672 46.153008 -5.88211 9.861284 0.702589 -10.936877 -0.360575 7.156209 2e-06 8.774824 -0.0 -16.948355 17.401533 6.257189 -1.844034 2.498505 -2.50728 -10.163606 4.678945 4.621111 -20.97604 -8e-06 -0.0 -21.226305 2.451692 -3.594002 1e-06 -6e-06 -1e-06 -1.362682 2.240799 -0.746324 -21.33493 0.584906 3.00832 -13.821225 -5e-06 -0.0 -23.887188 -0.249086 -0.839484 -60.716858 2.531269 -0.177288 -0.294024 1.679688 0.833256 -14.218219 0.093212 1.300579 -34.212074 -0.287573 0.967168 -20.03323 0.964531 1.212847 -0.0 -0.0 -0.0 -3.440391 0.788234 0.501655 -15.928196 -3.167314 2.999706 -6.33883 -2e-06 -1e-06 -18.123463 3.648179 -4.905674 -5e-06 0.0 -3e-06 -3.474061 27.62701 2.568411 74.540092 34.935989 -11.167888 -176.184875 67.23024 -176.614655 -24.937466 22.096909 -32.576817 2.243539 -5.255039 -3.180157 14.282896 -0.826589 6.952503 -5e-06 -12.69061 1e-06 16.382818 -17.299812 2.261466 1.665666 -1.955921 -2.878299 4.727799 -4.170589 4.993924 11.02053 4e-06 -1e-06 12.109054 -3.735718 -2.866783 0.0 0.0 -2e-06 1.291985 -1.92855 -1.498089 14.800132 0.567469 3.865609 14.242576 -1.341736 -6.660656 19.631973 0.143928 -0.648241 50.354755 -0.891772 -5.82734 0.353029 -1.511149 -0.03194 20.222797 3.684313 2.316633 18.787279 7e-06 2e-06 10.751633 -0.479868 1.397907 -1e-06 1e-06 1e-06 3.273808 0.305948 -0.58011 21.486826 11.830384 2.266137 8.16293 3e-06 -0.0 18.399088 -3.798986 -4.940573 2e-06 -0.0 -1e-06 6.422784 22.345718 -117.519554 0.126743 -0.182051 126.780128 -6.327142 -0.397079 -10.828693 1.455262 -2.160585 1.809118 0.0 -0.0 2e-06 -49.781975 -45.108269 -60.832588 1.3603 0.860715 126.742699 14.44857 48.336189 -24.7279 -1.451715 0.204797 2.587912 0.0 0.0 -1e-06 
0.0 0.0 0.0 0.0 -0.0 0.0 -0.336959 38.465134 4.980653 -3.458594 -1.161831 2.464297 -3.306748 -3.401557 20.135469 -1.113184 -1.285716 5.321527 1.20521 -5.875148 19.046457 -9.435407 6.909647 -3.344172 2.281195 8.854386 -3.323476 -1.65537 11.111665 -9.044765 7.7e-05 -2.3e-05 7e-06 -0.01144 0.015754 0.014933 0.717376 -3.64192 -10.422185 -0.752168 3.679811 -10.430058 1.543145 -14.329553 3.782533 -12.941249 -55.39616 -17.811407 -14.659066 -83.623756 15.759883 7.693364 3.277121 46.309418 -5.882108 9.861286 0.70259 -10.936878 -0.360576 7.156211 2e-06 8.77483 -1e-06 -16.970598 17.453924 6.251884 -1.844033 2.498504 -2.50728 -10.163604 4.678946 4.621112 -20.976036 -8e-06 3e-06 -21.226299 2.451693 -3.594 1e-06 -6e-06 -0.0 -1.362681 2.240799 -0.746324 -21.334927 0.584908 3.008326 -13.821221 -5e-06 3e-06 -23.887184 -0.249081 -0.839481 -60.826252 2.556958 -0.208438 -0.294024 1.679686 0.833256 -14.218217 0.093214 1.300581 -34.21207 -0.287567 0.967174 -20.033226 0.964536 1.212848 -1e-06 0.0 0.0 -3.44039 0.788232 0.501656 -15.928198 -3.167312 2.99971 -6.33883 -1e-06 1e-06 -18.123457 3.64818 -4.905671 -5e-06 1e-06 -3e-06 -3.460572 27.625753 2.596313 74.460533 34.998611 -11.190317 -175.993088 67.250771 -176.40509 -24.883766 22.055784 -32.524799 2.243541 -5.255037 -3.180156 14.282887 -0.826597 6.952499 -4e-06 -12.690605 1e-06 16.395489 -17.290112 2.263818 1.665667 -1.955921 -2.878298 4.727798 -4.170587 4.993923 11.020525 2e-06 -1e-06 12.10905 -3.735715 -2.866782 0.0 0.0 -1e-06 1.291985 -1.92855 -1.498089 14.800125 0.567469 3.865608 14.242568 -1.341737 -6.660655 19.631968 0.143926 -0.648244 50.403427 -0.883889 -5.834893 0.353029 -1.51115 -0.03194 20.222788 3.684313 2.316629 18.78727 6e-06 -1e-06 10.751627 -0.479867 1.397905 -1e-06 0.0 1e-06 3.273807 0.305947 -0.58011 21.486813 11.830374 2.266133 8.162927 2e-06 -2e-06 18.399082 -3.798984 -4.940576 2e-06 1e-06 -1e-06 6.419477 22.40506 -117.484856 0.132694 -0.185996 126.840492 -6.304642 -0.431126 -10.884238 1.456901 -2.161139 1.809231 0.0 -1e-06 2e-06 -49.869984 -45.159824 -60.763195 1.351761 0.864737 126.740448 14.259368 48.419987 -24.852259 -1.453732 0.201079 2.581106 0.0 0.0 -1e-06 
0.0 0.0 0.0 0.0 -0.0 0.0 -0.326484 38.449593 5.020335 -3.447589 -1.176535 2.451316 -3.291775 -3.425609 20.130198 -1.096943 -1.29688 5.317201 1.257051 -5.87059 19.048201 -9.493735 6.953949 -3.250835 2.314367 8.772482 -3.322796 -1.764684 11.09807 -9.112127 7.8e-05 -2.2e-05 7e-06 -0.00708 0.008301 0.020573 0.720683 -3.651822 -10.421635 -0.746773 3.674528 -10.429265 1.526146 -14.283256 3.83172 -13.073177 -55.499886 -17.747473 -14.131288 -83.525131 15.203159 7.807441 3.274694 46.662621 -5.882109 9.86129 0.702589 -10.93688 -0.360579 7.156211 2e-06 8.774828 -1e-06 -17.011652 17.476246 6.22627 -1.844033 2.498507 -2.50728 -10.163607 4.678945 4.62111 -20.97604 -8e-06 4e-06 -21.226301 2.451695 -3.594001 1e-06 -5e-06 -1e-06 -1.362682 2.2408 -0.746324 -21.334929 0.584907 3.008326 -13.821225 -5e-06 3e-06 -23.887186 -0.249082 -0.839478 -60.911594 2.567578 -0.219193 -0.294024 1.679688 0.833256 -14.218217 0.093213 1.300582 -34.212074 -0.287569 0.967174 -20.033226 0.964535 1.212848 0.0 0.0 -0.0 -3.440391 0.788232 0.501656 -15.9282 -3.167313 2.999711 -6.33883 -1e-06 1e-06 -18.123457 3.648181 -4.905673 -5e-06 1e-06 -3e-06 -3.486391 27.620434 2.617677 74.418625 35.074528 -11.202406 -175.792999 67.263817 -176.217194 -24.841919 22.063143 -32.510937 2.243541 -5.255038 -3.180157 14.282894 -0.826594 6.952504 -3e-06 -12.690609 0.0 16.392534 -17.282841 2.272985 1.665666 -1.955921 -2.878299 4.7278 -4.170589 4.993925 11.020528 1e-06 -2e-06 12.109054 -3.735717 -2.866785 1e-06 2e-06 -1e-06 1.291985 -1.928551 -1.498091 14.800132 0.56747 3.865608 14.242573 -1.341737 -6.660657 19.631973 0.143925 -0.648244 50.45377 -0.874282 -5.840132 0.353029 -1.511151 -0.03194 20.222797 3.684312 2.31663 18.787279 5e-06 -2e-06 10.751631 -0.479868 1.397905 -1e-06 1e-06 1e-06 3.273807 0.305947 -0.580111 21.486816 11.830379 2.266134 8.16293 1e-06 -2e-06 18.399088 -3.798988 -4.940577 2e-06 1e-06 -1e-06 6.393445 22.445524 -117.478043 0.144171 -0.195125 126.904633 -6.286285 -0.440511 -10.920156 1.45762 -2.159189 1.830606 0.0 0.0 2e-06 -49.991989 -45.205227 -60.66523 1.343428 0.862625 126.735703 14.087399 48.495419 -24.967573 -1.458509 0.209264 2.577711 0.0 0.0 -1e-06 
